<svg xmlns="http://www.w3.org/2000/svg" xmlns:xlink="http://www.w3.org/1999/xlink" viewBox="0 0 64 64"><defs><linearGradient id="a" x1="19" x2="19" y1="16" y2="26" gradientUnits="userSpaceOnUse"><stop offset="0" stop-color="#f4b7a4"/><stop offset="1" stop-color="#f7907f"/></linearGradient><linearGradient id="c" x1="45" x2="45" xlink:href="#a"/><linearGradient id="d" x1="32" x2="32" y1="10.89" y2="37" xlink:href="#a"/><linearGradient id="b" x1="32" x2="32" y1="37.55" y2="61" gradientUnits="userSpaceOnUse"><stop offset="0" stop-color="#42bfff"/><stop offset="1" stop-color="#1174ac"/></linearGradient><linearGradient id="e" x1="32" x2="32" y1="3" y2="14.32" xlink:href="#b"/><linearGradient id="f" x1="31.5" x2="31.5" y1="45" y2="54" gradientUnits="userSpaceOnUse"><stop offset="0" stop-color="#ffc033"/><stop offset="1" stop-color="#ef8e2e"/></linearGradient><linearGradient id="g" x1="31.5" x2="31.5" y1="52" y2="61" gradientUnits="userSpaceOnUse"><stop offset="0" stop-color="#ce7f20"/><stop offset="1" stop-color="#b2500d"/></linearGradient><linearGradient id="h" x1="17" x2="17" y1="53.23" y2="61" xlink:href="#a"/><linearGradient id="i" x1="47" x2="47" y1="53.22" y2="61" xlink:href="#a"/><linearGradient id="j" x1="32" x2="32" y1="61" y2="3" gradientUnits="userSpaceOnUse"><stop offset="0" stop-color="#000406"/><stop offset="1" stop-color="#001521"/></linearGradient></defs><g data-name="Layer 2"><path fill="#e57e70" d="M37.36,37.57,37,37.5V35.25a1,1,0,0,0-1-1H28a1,1,0,0,0-1,1V37.5l-.36.07a1,1,0,0,0-.33,1.83,10.92,10.92,0,0,0,11.38,0A1,1,0,0,0,37.36,37.57Z"/><path fill="url(#a)" d="M21,16a5,5,0,0,0,0,10,1,1,0,0,0,1-1V17A1,1,0,0,0,21,16Z"/><path fill="url(#c)" d="M43,16a1,1,0,0,0-1,1v8a1,1,0,0,0,1,1,5,5,0,0,0,0-10Z"/><path fill="url(#d)" d="M43,11.32l-22-.43a1.13,1.13,0,0,0-.72.29,1,1,0,0,0-.3.71V25a12,12,0,0,0,24,0V12.32A1,1,0,0,0,43,11.32Z"/><path fill="url(#b)" d="M56.9,47.32A9,9,0,0,0,49.73,40L37.36,37.57a1,1,0,0,0-.71.12,9.07,9.07,0,0,1-9.3,0,1,1,0,0,0-.71-.12L14.27,40A9,9,0,0,0,7.1,47.32L5,59.84A1,1,0,0,0,6,61H58a1,1,0,0,0,1-1.16Z"/><path fill="url(#e)" d="M37,3H27a7,7,0,0,0-7,7v3.32a1,1,0,0,0,1,1H43a1,1,0,0,0,1-1V10A7,7,0,0,0,37,3Z"/><path fill="#01568d" d="M43.7,12.67A62.57,62.57,0,0,0,32,11a62.57,62.57,0,0,0-11.7,1.67,3,3,0,0,0,1.27,5.77A57.57,57.57,0,0,1,32,17a57.57,57.57,0,0,1,10.43,1.44,3,3,0,0,0,1.27-5.77Z"/><rect width="29" height="9" x="17" y="45" fill="url(#f)" rx="1"/><rect width="29" height="9" x="17" y="52" fill="url(#g)" rx="1"/><path fill="url(#h)" d="M22.39,56.08l-5.91-2.53a4,4,0,0,0-3.66.25C9.49,55.8,11,61,15.17,61H22a1,1,0,0,0,1-1V57A1,1,0,0,0,22.39,56.08Z"/><path fill="url(#i)" d="M51.18,53.8a4,4,0,0,0-3.66-.25l-5.91,2.53A1,1,0,0,0,41,57v3a1,1,0,0,0,1,1h6.83C53,61,54.51,55.8,51.18,53.8Z"/></g><path fill="url(#j)" d="M14.27,40A9,9,0,0,0,7.1,47.32L5,59.84A1,1,0,0,0,6,61H58a1,1,0,0,0,1-1.16L56.9,47.32A9,9,0,0,0,49.73,40L37,37.5V35.89a12,12,0,0,0,7-10,5,5,0,0,0,1.77-9.08A3,3,0,0,0,46,15.55a2.93,2.93,0,0,0-2-2.79V10a7,7,0,0,0-7-7H27a7,7,0,0,0-7,7v2.76a2.94,2.94,0,0,0-1.72,4,5,5,0,0,0,1.77,9.1,12,12,0,0,0,7,10V37.5Zm.9,19c-2,0-3-2.49-1.32-3.48a2,2,0,0,1,1.85-.13L21,57.66V59ZM44,52H19V47H44ZM19,54H44v1.06l-2.39,1A1,1,0,0,0,41,57v2H23V57a1,1,0,0,0-.61-.92L19,54.63Zm24,5V57.66l5.3-2.27A1.91,1.91,0,0,1,51,56.83h0A2.08,2.08,0,0,1,48.83,59ZM54.93,47.65,56.82,59H52.43a3.73,3.73,0,0,0-1.25-5.2c-2.38-1.43-4.38.19-5.18.4V46a1,1,0,0,0-1-1H18a1,1,0,0,0-1,1v7.77l-.52-.22a4,4,0,0,0-3.66.25A3.72,3.72,0,0,0,11.57,59H7.18L9.07,47.65a7,7,0,0,1,5.58-5.72l12-2.33a10.85,10.85,0,0,0,10.66,0l12,2.33A7,7,0,0,1,54.93,47.65ZM44,23.82V18.35l.2-.09a3,3,0,0,1-.2,5.56ZM27,5H37a5,5,0,0,1,5,5v2.3A56.19,56.19,0,0,0,32,11a56.19,56.19,0,0,0-10,1.3V10A5,5,0,0,1,27,5Zm-6.26,9.62A60,60,0,0,1,32,13a60,60,0,0,1,11.26,1.62,1,1,0,0,1-.41,1.86A58.67,58.67,0,0,0,32,15a58.67,58.67,0,0,0-10.85,1.48,1,1,0,0,1-.41-1.86ZM18,21a3,3,0,0,1,1.79-2.75l.21.08v5.49A3,3,0,0,1,18,21Zm4,4V18.35A56.18,56.18,0,0,1,32,17a56.18,56.18,0,0,1,10,1.35V25a10,10,0,0,1-20,0ZM35,36.61v1.71s0,.08,0,.13a9.33,9.33,0,0,1-6,0c0-.05,0-.08,0-.13V36.61A11.62,11.62,0,0,0,35,36.61Z" data-name="Layer 3"/></svg>