<?xml version="1.0" encoding="UTF-8"?>
<svg xmlns="http://www.w3.org/2000/svg" xmlns:xlink="http://www.w3.org/1999/xlink" width="20px" height="20px" viewBox="0 0 20 20" version="1.1">
<g id="surface1">
<path style="fill-rule:nonzero;fill:rgb(0%,0%,0%);fill-opacity:1;stroke-width:2;stroke-linecap:round;stroke-linejoin:round;stroke:rgb(40%,80%,100%);stroke-opacity:1;stroke-miterlimit:4;" d="M 14.167969 1.667969 L 5.832031 1.667969 C 3.53125 1.667969 1.667969 3.53125 1.667969 5.832031 L 1.667969 14.167969 C 1.667969 16.46875 3.53125 18.332031 5.832031 18.332031 L 14.167969 18.332031 C 16.46875 18.332031 18.332031 16.46875 18.332031 14.167969 L 18.332031 5.832031 C 18.332031 3.53125 16.46875 1.667969 14.167969 1.667969 Z M 14.167969 1.667969 "/>
<path style="fill-rule:nonzero;fill:rgb(0%,0%,0%);fill-opacity:1;stroke-width:2;stroke-linecap:round;stroke-linejoin:round;stroke:rgb(40%,80%,100%);stroke-opacity:1;stroke-miterlimit:4;" d="M 13.332031 9.476562 C 13.4375 10.167969 13.316406 10.875 12.996094 11.5 C 12.671875 12.121094 12.160156 12.625 11.535156 12.941406 C 10.910156 13.257812 10.199219 13.367188 9.507812 13.253906 C 8.8125 13.144531 8.175781 12.816406 7.679688 12.320312 C 7.183594 11.824219 6.855469 11.1875 6.746094 10.492188 C 6.632812 9.800781 6.742188 9.089844 7.058594 8.464844 C 7.375 7.839844 7.878906 7.328125 8.5 7.003906 C 9.125 6.683594 9.832031 6.5625 10.523438 6.667969 C 11.230469 6.773438 11.886719 7.101562 12.394531 7.605469 C 12.898438 8.113281 13.226562 8.765625 13.332031 9.476562 Z M 14.582031 5.417969 L 14.589844 5.417969 "/>
</g>
</svg>
