<?xml version="1.0" encoding="UTF-8"?>
<svg xmlns="http://www.w3.org/2000/svg" xmlns:xlink="http://www.w3.org/1999/xlink" width="20px" height="20px" viewBox="0 0 20 20" version="1.1">
<g id="surface1">
<path style="fill-rule:nonzero;fill:rgb(0%,0%,0%);fill-opacity:1;stroke-width:2;stroke-linecap:round;stroke-linejoin:round;stroke:rgb(40%,80%,100%);stroke-opacity:1;stroke-miterlimit:4;" d="M 19.167969 2.5 C 18.367188 3.0625 17.484375 3.492188 16.550781 3.773438 C 16.046875 3.199219 15.382812 2.789062 14.640625 2.601562 C 13.898438 2.417969 13.117188 2.464844 12.402344 2.738281 C 11.6875 3.011719 11.074219 3.496094 10.644531 4.128906 C 10.214844 4.761719 9.988281 5.511719 10 6.273438 L 10 7.109375 C 8.535156 7.144531 7.085938 6.820312 5.777344 6.164062 C 4.46875 5.503906 3.34375 4.53125 2.5 3.332031 C 2.5 3.332031 -0.832031 10.832031 6.667969 14.167969 C 4.949219 15.332031 2.90625 15.914062 0.832031 15.832031 C 8.332031 20 17.5 15.832031 17.5 6.25 C 17.5 6.019531 17.476562 5.785156 17.433594 5.558594 C 18.285156 4.71875 18.882812 3.660156 19.167969 2.5 Z M 19.167969 2.5 "/>
</g>
</svg>
